<?xml version="1.0" ?><svg width="24px" height="24px" viewBox="0 0 24 24" id="SVGRoot" version="1.1" xmlns="http://www.w3.org/2000/svg" xmlns:cc="http://creativecommons.org/ns#" xmlns:dc="http://purl.org/dc/elements/1.1/" xmlns:inkscape="http://www.inkscape.org/namespaces/inkscape" xmlns:rdf="http://www.w3.org/1999/02/22-rdf-syntax-ns#" xmlns:sodipodi="http://sodipodi.sourceforge.net/DTD/sodipodi-0.dtd" xmlns:svg="http://www.w3.org/2000/svg"><defs id="defs2"/><g id="layer1"><path d="M 11.919922 2 C 10.64638 2.0147005 9.4821928 2.3671115 8.578125 2.9941406 C 7.6792226 3.6175872 7.0132655 4.5812058 7.0058594 5.7089844 L 7.0097656 5.6386719 C 7.0097656 5.6386719 7.0024551 5.7130504 7.0019531 5.7167969 C 7.0019412 5.7202735 6.9999993 5.7230828 7 5.7265625 C 6.9999456 5.7331361 7.0000091 5.7395189 7 5.7460938 C 6.9999982 5.7474087 7 5.7486849 7 5.75 C 6.9882771 5.8383315 6.9202266 6.3282219 6.8808594 7.0566406 C 6.838139 7.8471026 6.8115036 8.7859451 7.03125 9.6367188 C 7.2431804 10.457232 7.7459198 11.567077 8.2128906 12.580078 C 8.4407535 13.074381 8.4849158 13.152828 8.6484375 13.490234 L 2.6054688 16.080078 A 1 1 0 0 0 2 17.037109 L 2 21 A 1.0001 1.0001 0 0 0 3 22 L 21 22 A 1.0001 1.0001 0 0 0 22 21 L 22 17.027344 A 1 1 0 0 0 21.394531 16.080078 L 15.349609 13.490234 C 15.512965 13.150444 15.557981 13.069803 15.787109 12.570312 C 16.254016 11.552475 16.757248 10.436699 16.96875 9.6132812 C 17.187986 8.7597543 17.161809 7.8165187 17.119141 7.0214844 C 17.076473 6.22645 16.990234 5.59375 16.990234 5.59375 C 16.9389 4.5028113 16.275849 3.5748919 15.392578 2.9726562 C 14.474567 2.3467347 13.292301 2.0010822 12.005859 2 C 11.979441 1.9998475 11.9522 1.9998475 11.925781 2 A 1.0001 1.0001 0 0 0 11.919922 2 z M 11.943359 4 C 11.960144 3.9999231 11.977355 3.9999031 11.994141 4 A 1.0001 1.0001 0 0 0 12 4 C 12.920307 4.ffffff1 13.737388 4.2648355 14.265625 4.625 C 14.793862 4.9851645 15 5.3697738 15 5.7265625 A 1.0001 1.0001 0 0 0 15.009766 5.8613281 C 15.009766 5.8613281 15.085002 6.4180551 15.123047 7.1269531 C 15.161092 7.8358511 15.134867 8.711834 15.03125 9.1152344 C 14.919899 9.5487438 14.423072 10.750181 13.970703 11.736328 C 13.521276 12.716063 13.114719 13.532245 13.109375 13.542969 A 1 1 0 0 0 13.103516 13.554688 A 1 1 0 0 0 13.080078 13.605469 A 1 1 0 0 0 13.03125 13.751953 A 1 1 0 0 0 13.027344 13.765625 A 1 1 0 0 0 13.021484 13.792969 A 1 1 0 0 0 13.007812 13.861328 A 1 1 0 0 0 13 13.972656 A 1 1 0 0 0 13.003906 14.099609 A 1 1 0 0 0 13.013672 14.167969 A 1 1 0 0 0 13.015625 14.181641 A 1 1 0 0 0 13.021484 14.208984 A 1 1 0 0 0 13.037109 14.275391 A 1 1 0 0 0 13.083984 14.404297 A 1 1 0 0 0 13.095703 14.429688 A 1 1 0 0 0 13.167969 14.554688 A 1 1 0 0 0 13.183594 14.580078 A 1 1 0 0 0 13.212891 14.617188 A 1 1 0 0 0 13.232422 14.640625 A 1 1 0 0 0 13.263672 14.675781 A 1 1 0 0 0 13.294922 14.710938 A 1 1 0 0 0 13.310547 14.726562 A 1 1 0 0 0 13.359375 14.769531 A 1 1 0 0 0 13.373047 14.78125 A 1 1 0 0 0 13.425781 14.820312 A 1 1 0 0 0 13.554688 14.896484 A 1 1 0 0 0 13.605469 14.919922 A 1 1 0 0 0 13.640625 14.935547 L 20 17.660156 L 20 20 L 4 20 L 4 17.660156 L 10.394531 14.919922 A 1 1 0 0 0 10.445312 14.894531 A 1 1 0 0 0 10.771484 14.634766 A 1 1 0 0 0 10.822266 14.566406 A 1 1 0 0 0 10.867188 14.496094 A 1 1 0 0 0 10.90625 14.421875 A 1 1 0 0 0 10.970703 13.763672 A 1 1 0 0 0 10.919922 13.605469 A 1 1 0 0 0 10.894531 13.554688 C 10.894531 13.554688 10.882972 13.529617 10.882812 13.529297 A 1 1 0 0 0 10.880859 13.525391 C 10.867866 13.499275 10.474364 12.709626 10.029297 11.744141 C 9.5769415 10.762845 9.0795578 9.5657239 8.96875 9.1367188 C 8.8657582 8.7379741 8.8389174 7.8697973 8.8769531 7.1660156 C 8.9149889 6.462234 8.9902344 5.9082031 8.9902344 5.9082031 A 1.0001 1.0001 0 0 0 9 5.7617188 C 8.9999558 5.7581612 9 5.7535461 9 5.75 C 9 5.7464478 8.9999559 5.7437815 9 5.7402344 A 1.0001 1.0001 0 0 0 9 5.7265625 C 8.999926 5.3743439 9.2003295 4.9949217 9.7167969 4.6367188 C 10.233264 4.2785158 11.034287 4.0104935 11.943359 4 z " id="path1834" style="color:#ffffff;font-style:normal;font-variant:normal;font-weight:normal;font-stretch:normal;font-size:medium;line-height:normal;font-family:sans-serif;font-variant-ligatures:normal;font-variant-position:normal;font-variant-caps:normal;font-variant-numeric:normal;font-variant-alternates:normal;font-variant-east-asian:normal;font-feature-settings:normal;font-variation-settings:normal;text-indent:0;text-align:start;text-decoration:none;text-decoration-line:none;text-decoration-style:solid;text-decoration-color:#ffffff;letter-spacing:normal;word-spacing:normal;text-transform:none;writing-mode:lr-tb;direction:ltr;text-orientation:mixed;dominant-baseline:auto;baseline-shift:baseline;text-anchor:start;white-space:normal;shape-padding:0;shape-margin:0;inline-size:0;clip-rule:nonzero;display:inline;overflow:visible;visibility:visible;isolation:auto;mix-blend-mode:normal;color-interpolation:sRGB;color-interpolation-filters:linearRGB;solid-color:#ffffff;solid-opacity:1;vector-effect:none;fill:#ffffff;fill-opacity:1;fill-rule:nonzero;stroke:none;stroke-width:2;stroke-linecap:round;stroke-linejoin:round;stroke-miterlimit:4;stroke-dasharray:none;stroke-dashoffset:0;stroke-opacity:1;color-rendering:auto;image-rendering:auto;shape-rendering:auto;text-rendering:auto;enable-background:accumulate;stop-color:#ffffff;stop-opacity:1;opacity:1"/></g></svg>